HIERARCHY
ROOT reference
{
  OFFSET 0 0 0
  CHANNELS 6 Xposition Yposition Zposition Zrotation Xrotation Yrotation
  JOINT Hips
  {
    OFFSET 370.543 87.5 183.721
    CHANNELS 3 Zrotation Xrotation Yrotation
    JOINT RightUpLeg
    {
      OFFSET -9.29072 -1.53718 -0.00769521
      CHANNELS 3 Zrotation Xrotation Yrotation
      JOINT RightLeg
      {
        OFFSET 0.000649198 -41.8926 0.0287464
        CHANNELS 3 Zrotation Xrotation Yrotation
        JOINT RightFoot
        {
          OFFSET -0.131981 -42.8927 0.241786
          CHANNELS 3 Zrotation Xrotation Yrotation
          End Site
          {
            OFFSET 0 -7.69 17.5
          }
        }
      }
    }
    JOINT LeftUpLeg
    {
      OFFSET 9.29816 -1.6623 -0.0330144
      CHANNELS 3 Zrotation Xrotation Yrotation
      JOINT LeftLeg
      {
        OFFSET 0.0555409 -41.8801 -0.0492089
        CHANNELS 3 Zrotation Xrotation Yrotation
        JOINT LeftFoot
        {
          OFFSET 0.737583 -41.1094 -0.206555
          CHANNELS 3 Zrotation Xrotation Yrotation
          End Site
          {
            OFFSET 0 -7.69 17.5
          }
        }
      }
    }
    JOINT Spine
    {
      OFFSET 0.0742767 14.2946 0.0485675
      CHANNELS 3 Zrotation Xrotation Yrotation
      JOINT Spine1
      {
        OFFSET 0.0332084 9.70841 0.0159593
        CHANNELS 3 Zrotation Xrotation Yrotation
        JOINT Spine2
        {
          OFFSET 0.0388468 10.1231 0.00288192
          CHANNELS 3 Zrotation Xrotation Yrotation
          JOINT Spine3
          {
            OFFSET 0.0300771 9.71993 0.00776905
            CHANNELS 3 Zrotation Xrotation Yrotation
            JOINT Neck
            {
              OFFSET 0.058413 10.382 0.0516165
              CHANNELS 3 Zrotation Xrotation Yrotation
              JOINT Head
              {
                OFFSET 0.0298281 9.47849 0.0268718
                CHANNELS 3 Zrotation Xrotation Yrotation
                End Site
                {
                  OFFSET 0 15.95 0
                }
              }
            }
            JOINT RightShoulder
            {
              OFFSET -3.15612 6.91385 0.0353801
              CHANNELS 3 Zrotation Xrotation Yrotation
              JOINT RightArm
              {
                OFFSET -12.7781 -0.0057607 0.0332486
                CHANNELS 3 Zrotation Xrotation Yrotation
                JOINT RightForeArm
                {
                  OFFSET -26.4999 -0.0425897 0.0409183
                  CHANNELS 3 Zrotation Xrotation Yrotation
                  JOINT RightHand
                  {
                    OFFSET -25.993 -0.0294641 0.00108206
                    CHANNELS 3 Zrotation Xrotation Yrotation
                    JOINT RightHandThumb1
                    {
                      OFFSET -2.48905 0.190105 3.12053
                      CHANNELS 3 Zrotation Xrotation Yrotation
                      JOINT RightHandThumb2
                      {
                        OFFSET -3.68274 0 0
                        CHANNELS 3 Zrotation Xrotation Yrotation
                        JOINT RightHandThumb3
                        {
                          OFFSET -2.55832 0 0
                          CHANNELS 3 Zrotation Xrotation Yrotation
                          End Site
                          {
                            OFFSET -2.194 0 0
                          }
                        }
                      }
                    }
                    JOINT RightInHandIndex
                    {
                      OFFSET -3.22368 0.508421 1.97842
                      CHANNELS 3 Zrotation Xrotation Yrotation
                      JOINT RightHandIndex1
                      {
                        OFFSET -5.21684 -0.091368 0.999158
                        CHANNELS 3 Zrotation Xrotation Yrotation
                        JOINT RightHandIndex2
                        {
                          OFFSET -3.61937 0 0
                          CHANNELS 3 Zrotation Xrotation Yrotation
                          JOINT RightHandIndex3
                          {
                            OFFSET -2.0521 0 0
                            CHANNELS 3 Zrotation Xrotation Yrotation
                            End Site
                            {
                              OFFSET -1.805 0 0
                            }
                          }
                        }
                      }
                    }
                    JOINT RightInHandMiddle
                    {
                      OFFSET -3.38211 0.517263 0.756737
                      CHANNELS 3 Zrotation Xrotation Yrotation
                      JOINT RightHandMiddle1
                      {
                        OFFSET -5.17411 -0.084 0.313895
                        CHANNELS 3 Zrotation Xrotation Yrotation
                        JOINT RightHandMiddle2
                        {
                          OFFSET -3.94947 0 0
                          CHANNELS 3 Zrotation Xrotation Yrotation
                          JOINT RightHandMiddle3
                          {
                            OFFSET -2.47579 0 0
                            CHANNELS 3 Zrotation Xrotation Yrotation
                            End Site
                            {
                              OFFSET -1.975 0 0
                            }
                          }
                        }
                      }
                    }
                    JOINT RightInHandRing
                    {
                      OFFSET -3.36516 0.537895 -0.128947
                      CHANNELS 3 Zrotation Xrotation Yrotation
                      JOINT RightHandRing1
                      {
                        OFFSET -4.63474 -0.022105 -0.478947
                        CHANNELS 3 Zrotation Xrotation Yrotation
                        JOINT RightHandRing2
                        {
                          OFFSET -3.44238 0 0
                          CHANNELS 3 Zrotation Xrotation Yrotation
                          JOINT RightHandRing3
                          {
                            OFFSET -2.3881 0 0
                            CHANNELS 3 Zrotation Xrotation Yrotation
                            End Site
                            {
                              OFFSET -1.857 0 0
                            }
                          }
                        }
                      }
                    }
                    JOINT RightInHandPinky
                    {
                      OFFSET -3.16105 0.469368 -1.20179
                      CHANNELS 3 Zrotation Xrotation Yrotation
                      JOINT RightHandPinky1
                      {
                        OFFSET -4.14105 -0.022105 -1.09053
                        CHANNELS 3 Zrotation Xrotation Yrotation
                        JOINT RightHandPinky2
                        {
                          OFFSET -2.75653 0 0
                          CHANNELS 3 Zrotation Xrotation Yrotation
                          JOINT RightHandPinky3
                          {
                            OFFSET -1.74189 0 0
                            CHANNELS 3 Zrotation Xrotation Yrotation
                            End Site
                            {
                              OFFSET -1.645 0 0
                            }
                          }
                        }
                      }
                    }
                  }
                }
              }
            }
            JOINT LeftShoulder
            {
              OFFSET 3.24463 6.9123 -0.0189685
              CHANNELS 3 Zrotation Xrotation Yrotation
              JOINT LeftArm
              {
                OFFSET 12.8793 -0.0485389 -0.0634723
                CHANNELS 3 Zrotation Xrotation Yrotation
                JOINT LeftForeArm
                {
                  OFFSET 26.4894 0.00252616 -0.136149
                  CHANNELS 3 Zrotation Xrotation Yrotation
                  JOINT LeftHand
                  {
                    OFFSET 26.005 0.0292639 -0.0166184
                    CHANNELS 3 Zrotation Xrotation Yrotation
                    JOINT LeftHandThumb1
                    {
                      OFFSET 2.48905 0.190105 3.12053
                      CHANNELS 3 Zrotation Xrotation Yrotation
                      JOINT LeftHandThumb2
                      {
                        OFFSET 3.68274 0 0
                        CHANNELS 3 Zrotation Xrotation Yrotation
                        JOINT LeftHandThumb3
                        {
                          OFFSET 2.55832 0 0
                          CHANNELS 3 Zrotation Xrotation Yrotation
                          End Site
                          {
                            OFFSET 2.194 0 0
                          }
                        }
                      }
                    }
                    JOINT LeftInHandIndex
                    {
                      OFFSET 3.22368 0.508421 1.97842
                      CHANNELS 3 Zrotation Xrotation Yrotation
                      JOINT LeftHandIndex1
                      {
                        OFFSET 5.21684 -0.091368 0.999158
                        CHANNELS 3 Zrotation Xrotation Yrotation
                        JOINT LeftHandIndex2
                        {
                          OFFSET 3.61937 0 0
                          CHANNELS 3 Zrotation Xrotation Yrotation
                          JOINT LeftHandIndex3
                          {
                            OFFSET 2.0521 0 0
                            CHANNELS 3 Zrotation Xrotation Yrotation
                            End Site
                            {
                              OFFSET 1.805 0 0
                            }
                          }
                        }
                      }
                    }
                    JOINT LeftInHandMiddle
                    {
                      OFFSET 3.38211 0.517263 0.756737
                      CHANNELS 3 Zrotation Xrotation Yrotation
                      JOINT LeftHandMiddle1
                      {
                        OFFSET 5.17411 -0.084 0.313895
                        CHANNELS 3 Zrotation Xrotation Yrotation
                        JOINT LeftHandMiddle2
                        {
                          OFFSET 3.94947 0 0
                          CHANNELS 3 Zrotation Xrotation Yrotation
                          JOINT LeftHandMiddle3
                          {
                            OFFSET 2.47579 0 0
                            CHANNELS 3 Zrotation Xrotation Yrotation
                            End Site
                            {
                              OFFSET 1.975 0 0
                            }
                          }
                        }
                      }
                    }
                    JOINT LeftInHandRing
                    {
                      OFFSET 3.36516 0.537895 -0.128947
                      CHANNELS 3 Zrotation Xrotation Yrotation
                      JOINT LeftHandRing1
                      {
                        OFFSET 4.63474 -0.022105 -0.478947
                        CHANNELS 3 Zrotation Xrotation Yrotation
                        JOINT LeftHandRing2
                        {
                          OFFSET 3.44238 0 0
                          CHANNELS 3 Zrotation Xrotation Yrotation
                          JOINT LeftHandRing3
                          {
                            OFFSET 2.3881 0 0
                            CHANNELS 3 Zrotation Xrotation Yrotation
                            End Site
                            {
                              OFFSET 1.857 0 0
                            }
                          }
                        }
                      }
                    }
                    JOINT LeftInHandPinky
                    {
                      OFFSET 3.16105 0.469368 -1.20179
                      CHANNELS 3 Zrotation Xrotation Yrotation
                      JOINT LeftHandPinky1
                      {
                        OFFSET 4.14105 -0.022105 -1.09053
                        CHANNELS 3 Zrotation Xrotation Yrotation
                        JOINT LeftHandPinky2
                        {
                          OFFSET 2.75653 0 0
                          CHANNELS 3 Zrotation Xrotation Yrotation
                          JOINT LeftHandPinky3
                          {
                            OFFSET 1.74189 0 0
                            CHANNELS 3 Zrotation Xrotation Yrotation
                            End Site
                            {
                              OFFSET 1.645 0 0
                            }
                          }
                        }
                      }
                    }
                  }
                }
              }
            }
          }
        }
      }
    }
  }
}
MOTION
Frames: 2
Frame Time: 0.00833333
1.500000000000000000e+02 0.000000000000000000e+00 0.000000000000000000e+00 0.000000000000000000e+00 0.000000000000000000e+00 -0.000000000000000000e+00 5.224783416983539916e-03 -3.261001198260208081e-04 4.949193146637785416e-03 8.126564617234880578e-03 2.475750445495381990e-03 1.457230063175563028e-02 -4.414589981216173430e-03 5.922370437826038868e-05 -1.182226364755981259e-02 6.315774134990655500e-03 -2.863853097945957306e-03 -3.447821120286454627e-03 -1.575819163839532397e-02 -3.710863881942508269e-02 -3.555252211996537404e-02 -3.718866181189313912e-03 8.818955809464134460e-03 4.089870809479836250e-02 2.691841317460958501e-03 3.019348333847257822e-03 8.544402154689295648e-03 4.647646305554745637e-03 3.450151733112989411e-03 -1.314751252190522225e-02 1.195161469658706244e-04 7.735629728782457285e-04 9.917601279436304943e-05 3.684090150066851740e-04 1.275281518778052054e-03 -3.784072472930140232e-03 5.438721922453153290e-05 1.028173422243018229e-04 -1.175554766949490225e-05 3.443262313837671448e-03 -8.158385977063893971e-03 1.390196871286634127e-02 -4.268119591853435958e-03 6.671707273690753682e-04 3.238325387038416738e-03 6.605130999263131514e-04 -6.984221406536954800e-03 1.526996759855411834e-02 1.015764493292364151e-01 1.055006040540984631e-02 1.106391540253702094e-01 -1.253017402902282737e-02 -9.618029931740318741e-03 2.791663942903177629e-03 -1.028680291414627024e-02 -7.930250820525212851e-02 -4.062196992107295485e-02 0.000000000000000000e+00 0.000000000000000000e+00 0.000000000000000000e+00 -8.675186486441264951e-15 4.224060555764243268e-16 0.000000000000000000e+00 -4.632413758201814033e-16 6.193993627584491572e-16 0.000000000000000000e+00 -8.439247408950926119e-16 4.467007610884412887e-16 -1.412434515096209804e-15 0.000000000000000000e+00 0.000000000000000000e+00 0.000000000000000000e+00 0.000000000000000000e+00 1.335050897758202168e-15 -6.192616423960662236e-16 0.000000000000000000e+00 1.725033052467615673e-15 5.323349778072093616e-16 -8.439247408950926119e-16 4.467007610884412887e-16 -1.412434515096209804e-15 0.000000000000000000e+00 6.988136486395166217e-16 -5.293757200674735580e-16 0.000000000000000000e+00 -6.918292091046010499e-16 -6.984056761452377014e-17 0.000000000000000000e+00 -8.588812934042983031e-16 5.497501997270052891e-16 -8.439247408950926119e-16 4.467007610884412887e-16 -1.412434515096209804e-15 0.000000000000000000e+00 0.000000000000000000e+00 0.000000000000000000e+00 0.000000000000000000e+00 1.285991725569154567e-15 -5.327811974013048558e-16 0.000000000000000000e+00 8.187693948807446437e-16 4.111521940939833743e-15 -8.439247408950926119e-16 4.467007610884412887e-16 -1.412434515096209804e-15 0.000000000000000000e+00 0.000000000000000000e+00 0.000000000000000000e+00 0.000000000000000000e+00 -1.574014738323127294e-15 2.953032604896583598e-15 0.000000000000000000e+00 -7.438587906050791349e-16 1.061405105311485790e-15 3.087039638777190620e-02 -9.286941672955267846e-03 7.423503542287386570e-02 9.822713949308706574e-03 1.042731578085836185e-02 -6.431839764075385213e-02 2.056986667807616728e-03 2.624928787854145535e-03 1.365241037584604723e-02 -2.334053579181631904e-03 -1.060812113947098021e-03 2.491581169195772501e-03 0.000000000000000000e+00 0.000000000000000000e+00 0.000000000000000000e+00 -3.659783520525778000e-16 3.091305462808305147e-15 0.000000000000000000e+00 1.292583021936350048e-15 -1.961061727985599151e-15 0.000000000000000000e+00 -4.046632570725592265e-15 -7.244702736754725054e-17 -5.354800117190854990e-17 0.000000000000000000e+00 0.000000000000000000e+00 0.000000000000000000e+00 0.000000000000000000e+00 -6.599930421607718267e-18 1.431164645798610309e-16 0.000000000000000000e+00 -6.572337588117080981e-16 8.978118037502486731e-17 -4.046632570725592265e-15 -7.244702736754725054e-17 -5.354800117190854990e-17 0.000000000000000000e+00 7.566949394128840081e-17 -2.780656937249548362e-16 0.000000000000000000e+00 1.543480861352361289e-16 -5.605188951872635354e-16 0.000000000000000000e+00 2.069440240116746843e-16 -2.117731998044477452e-16 -4.046632570725592265e-15 -7.244702736754725054e-17 -5.354800117190854990e-17 0.000000000000000000e+00 0.000000000000000000e+00 0.000000000000000000e+00 0.000000000000000000e+00 5.652669597615737117e-17 -2.150586485155445827e-16 0.000000000000000000e+00 -4.240969247028883493e-16 4.479041978774265183e-17 -4.046632570725592265e-15 -7.244702736754725054e-17 -5.354800117190854990e-17 0.000000000000000000e+00 0.000000000000000000e+00 0.000000000000000000e+00 0.000000000000000000e+00 1.035177114561669578e-16 -4.174572841492803982e-16 0.000000000000000000e+00 -1.325063275341540565e-15 -2.497717467249291179e-16
1.500000000000000000e+02 0.000000000000000000e+00 0.000000000000000000e+00 0.000000000000000000e+00 0.000000000000000000e+00 -0.000000000000000000e+00 -1.321157385108926623e-03 -2.592987863786358135e-03 1.830215511340092718e-03 -4.493116602227675838e-03 -4.978559754680957072e-03 -8.852504978040300412e-03 2.085070985894079548e-03 1.591036623799910914e-03 8.960106243849677229e-03 -6.421849515259188054e-03 -4.201415498888807012e-04 -1.595618293638755274e-03 -4.424805284877633173e-03 -4.010036144109290716e-04 -5.645790515047349961e-04 4.592850422341808111e-03 -4.581360729140781206e-03 -6.106978753090946260e-03 -1.411262387409423051e-02 -1.684989954967193101e-02 -7.419576283592062586e-04 -2.820561429617704768e-03 -2.399738265887698362e-03 3.014904150728371732e-04 -6.878216540468672568e-05 -4.900175553241906384e-04 -1.791721078785724877e-04 -5.958113484552900315e-04 -8.072290088130333304e-04 -7.259551394801141966e-05 -7.267674718008751585e-05 -1.708648800185827541e-04 -4.516867628594958693e-07 -5.956784504564185696e-04 1.440793247782419040e-03 -2.971102402965262925e-03 9.623719093392853544e-04 -8.778586866858418929e-04 1.306343269540510962e-04 1.266831759258013959e-02 1.313099085935725760e-02 2.674184708363437982e-02 -1.169526679065973629e-01 -2.961438480675640528e-02 -1.102914702160246452e-01 -3.986994783310445802e-03 -2.484461276817648105e-03 -1.261016860049165569e-03 6.422318218137480078e-03 3.623823811750415819e-02 2.010573261219930977e-02 0.000000000000000000e+00 0.000000000000000000e+00 0.000000000000000000e+00 -3.535078720780150677e-16 -5.228926852817210755e-16 0.000000000000000000e+00 -3.223601576401116239e-15 -3.180619586753542613e-16 0.000000000000000000e+00 -9.052255867949182181e-16 1.522762713802166801e-15 6.080163103897528439e-16 0.000000000000000000e+00 0.000000000000000000e+00 0.000000000000000000e+00 0.000000000000000000e+00 -6.624401422106125361e-16 3.936846702832885834e-17 0.000000000000000000e+00 -5.276566484189246342e-16 -6.819388780082980855e-16 -9.052255867949182181e-16 1.522762713802166801e-15 6.080163103897528439e-16 0.000000000000000000e+00 -9.455941164582181563e-16 6.865020269573664636e-17 0.000000000000000000e+00 1.016355096649539814e-15 -2.028018658681039517e-16 0.000000000000000000e+00 -8.503912362543662206e-16 -1.737089711557987512e-15 -9.052255867949182181e-16 1.522762713802166801e-15 6.080163103897528439e-16 0.000000000000000000e+00 0.000000000000000000e+00 0.000000000000000000e+00 0.000000000000000000e+00 -7.041415839310587142e-16 -8.361473869103407377e-16 0.000000000000000000e+00 8.155015028964714962e-16 -2.676125725310024251e-15 -9.052255867949182181e-16 1.522762713802166801e-15 6.080163103897528439e-16 0.000000000000000000e+00 0.000000000000000000e+00 0.000000000000000000e+00 0.000000000000000000e+00 8.487368349259521316e-16 -3.447719301377100944e-16 0.000000000000000000e+00 -4.091546177560817618e-16 -6.972201485062408120e-17 -1.257674939864863832e-02 6.002562336862469691e-03 -3.130121890057054046e-02 -2.484277071415354199e-02 1.395592669176433029e-02 6.259372398561004192e-02 1.184597878749285745e-02 1.156536477489056433e-03 -3.925983199148797703e-02 2.563108863830564944e-03 -2.391652708048763905e-03 6.849156888157040442e-03 0.000000000000000000e+00 0.000000000000000000e+00 0.000000000000000000e+00 -2.345213774571111226e-16 -8.535523916084560276e-16 0.000000000000000000e+00 -1.925455912804386644e-16 -4.001000393052596310e-17 0.000000000000000000e+00 3.440206479760072085e-15 1.719391024554204381e-16 9.971329925963426427e-17 0.000000000000000000e+00 0.000000000000000000e+00 0.000000000000000000e+00 0.000000000000000000e+00 2.015810226125662131e-17 -3.102718768562132462e-16 0.000000000000000000e+00 4.785880736489173400e-16 2.004781832339674398e-16 3.440206479760072085e-15 1.719391024554204381e-16 9.971329925963426427e-17 0.000000000000000000e+00 -1.836611100789704571e-16 2.529684957202785918e-16 0.000000000000000000e+00 -9.834210767867588740e-18 2.204420525593918721e-16 0.000000000000000000e+00 1.777320832713718841e-16 1.578653943761672976e-16 3.440206479760072085e-15 1.719391024554204381e-16 9.971329925963426427e-17 0.000000000000000000e+00 0.000000000000000000e+00 0.000000000000000000e+00 0.000000000000000000e+00 -2.936232636191809090e-16 4.235803279728436701e-17 0.000000000000000000e+00 2.296250479383139962e-16 1.260839126670487221e-16 3.440206479760072085e-15 1.719391024554204381e-16 9.971329925963426427e-17 0.000000000000000000e+00 0.000000000000000000e+00 0.000000000000000000e+00 0.000000000000000000e+00 -5.046547074154815822e-17 -4.575757769793076296e-16 0.000000000000000000e+00 1.784730553326947700e-17 2.510403276843466597e-16
